<?xml version="1.0" encoding="UTF-8"?>
<svg id="Layer_1" xmlns="http://www.w3.org/2000/svg" viewBox="0 0 758.43 380.54">
  <defs>
    <style>
      .cls-1 {
        fill: none;
      }

      .cls-2 {
        fill: #fff;
      }
    </style>
  </defs>
  <path class="cls-2" d="M268.97,250.26c-3.23.34-5.95.87-8.67.87-10.99-.02-21.99-.07-32.97-.48-1.91-.07-4.53-1.44-5.52-3.02-9.18-14.63-18.04-29.45-27.12-44.14-.75-1.21-2.44-2.43-3.79-2.54-4.1-.33-8.25-.12-13.08-.12,0,6.82-.05,13.11.01,19.39.08,7.83.15,15.66.41,23.48.15,4.52-1.84,6.24-6.28,6.16-9.33-.15-18.67-.23-27.98.09-4.77.16-5.91-1.73-5.89-6.17.15-39.65.13-79.3.13-118.95,0-8.33-.12-16.66-.24-24.99-.03-2.51.47-3.96,3.6-3.91,22.65.35,45.31.28,67.95.81,21.52.5,37.52,10.4,47.13,29.83,11.84,23.95,4.82,52.42-16.73,68.22-2.46,1.81-2.77,3.44-1.29,5.79,3.56,5.63,7.16,11.23,10.7,16.87,6.02,9.59,12.01,19.19,17.98,28.81.58.94.87,2.07,1.65,3.99ZM178.04,132.48v34.26c10.14,0,19.6.37,29.02-.11,7.78-.4,12.89-5.43,14.12-12.5,1.45-8.34-.85-13.15-8.95-16.67-4.03-1.75-8.51-2.81-12.89-3.37-7.06-.89-14.21-1.1-21.31-1.6Z"/>
  <path class="cls-2" d="M758.43,250.53c-7.53,0-14.44.06-21.35-.02-5.66-.07-11.32-.55-16.96-.39-2.92.08-4.07-.96-4.9-3.57-2.16-6.81-4.46-13.58-7.01-20.25-.5-1.31-2.35-2.96-3.6-2.98-15.47-.25-30.95-.23-46.42-.26-.8,0-1.6.2-1.93.25-2.17,7.71-4.04,15.1-6.45,22.32-.57,1.71-2.93,3.98-4.52,4.02-12.14.35-24.29.21-36.44.2-.44,0-.88-.28-1.58-.52,1.91-5.7,3.62-11.38,5.71-16.92,6.59-17.5,13.4-34.91,19.96-52.42,6.51-17.37,12.82-34.83,19.23-52.24,3.38-9.17,6.8-18.33,10.14-27.52,1.31-3.61,3.5-4.91,7.53-4.68,7.97.45,16,.51,23.97.13,4.87-.24,7.23,1.66,8.82,6.03,7.12,19.54,14.38,39.02,21.71,58.48,10.73,28.49,21.57,56.94,32.36,85.41.46,1.23.88,2.47,1.75,4.94ZM697.68,191.11c-4.86-13.32-9.59-26.28-14.32-39.23-.39,0-.79,0-1.18,0-4.02,12.79-8.05,25.57-12.35,39.24h27.85Z"/>
  <path class="cls-2" d="M438.8,197.34c1.42-3.97,2.93-7.91,4.23-11.92,4.44-13.73,8.85-27.46,13.19-41.22,4.03-12.8,7.96-25.63,11.92-38.46.49-1.59.94-3.19,1.32-4.8.91-3.86,3.03-5,7.17-4.86,10.48.36,20.98-.03,31.47-.12,2.08-.02,4.17,0,7.27,0-1.12,3.63-1.84,6.27-2.76,8.84-15.1,42.45-30.2,84.9-45.36,127.33-1.79,5.01-3.55,10.09-6.03,14.76-1.01,1.91-3.83,3.9-5.93,4.02-11.3.62-22.64.55-33.95.99-3.39.13-4.2-1.89-5.09-4.31-8.99-24.5-18.01-49-26.99-73.5-8.69-23.72-17.36-47.45-26.02-71.18-2.08-5.7-1.68-6.2,4.43-6.19,9.66.02,19.35.41,28.98-.19,5.16-.32,6.84,1.75,8.28,6.09,9.61,29.06,19.43,58.06,29.23,87.06.88,2.6,2.11,5.08,3.17,7.61.48.02.96.03,1.44.05Z"/>
  <path class="cls-2" d="M38.19,133.04H1c-.24-4.96-.53-9.53-.65-14.1-.16-6,.03-12.01-.32-17.99-.23-3.81.78-5.31,4.88-5.26,25.49.31,50.98.41,76.47.55,9.16.05,18.33.16,27.48-.07,3.92-.1,5.49,1.25,5.35,5.15-.34,9.66-.65,19.32-.69,28.98-.02,3.9-1.72,4.6-5.21,4.53-10.15-.22-20.31-.08-31.34-.08,0,6.31-.03,13.73,0,21.15.14,28.99.31,57.98.43,86.97.02,5.68-1.28,6.99-7.12,6.96-8.66-.04-17.32-.45-25.98-.37-4.49.04-6.16-1.61-6.14-6.15.12-27.32.04-54.65.02-81.98,0-9.28,0-18.56,0-28.29Z"/>
  <path class="cls-2" d="M336.13,96.69c.23,4.03.57,7.14.57,10.25,0,40.48-.09,80.96-.08,121.45,0,6.16.29,12.33.72,18.47.25,3.6-.8,5.1-4.66,5.03-10.49-.17-20.99-.15-31.47.11-4.01.1-5.13-1.36-5.12-5.22.16-35.49.17-70.97.19-106.46,0-12.83.03-25.66-.2-38.48-.07-3.94,1.28-5.27,5.19-5.21,11.46.18,22.92.06,34.87.06Z"/>
  <path class="cls-2" d="M579.92,173.82c0,23.32,0,46.64,0,69.96,0,6.39-.59,7-7.24,6.91-9.65-.14-19.3-.46-28.95-.4-3.97.03-4.69-1.86-4.7-5.22-.04-19.99-.31-39.98-.3-59.96.02-27.82.31-55.64.24-83.46-.01-4.5,1.07-6.13,5.81-5.94,9.48.37,18.99.32,28.48.05,4.63-.13,6.13,1.59,6.1,6.09-.14,23.99-.06,47.98-.06,71.97.21,0,.41,0,.62,0Z"/>
  <path class="cls-2" d="M389.25,298.86c5.24,0,9.29-.4,13.19.17,1.92.28,4.16,1.99,5.25,3.7,7.42,11.65,14.58,23.47,21.83,35.24.34.56.77,1.06,1.59,2.18,1.07-1.59,2.01-2.84,2.79-4.19,6.69-11.46,13.33-22.95,20.07-34.37.62-1.04,1.87-2.37,2.87-2.41,5.59-.23,11.2-.11,17.47-.11-.38,5.46-.94,9.73-.93,14,.02,19.66.16,39.32.35,58.98.06,5.92-.69,6.95-6.57,7.63-.17.02-.33.02-.5.04-11.03,1.01-12.41-.52-12.09-11.61.3-10.24.06-20.5.06-30.75-.54-.24-1.08-.48-1.62-.72-6.76,12.7-13.53,25.39-20.75,38.94-10.44-10.9-16.02-24.08-23.13-36.24l-1.47.14c0,8.01-.02,16.03.02,24.04,0,1.66.19,3.33.32,4.99.84,10.62-.05,11.58-10.58,11.43-6.46-.09-7.52-.95-7.61-7.64-.28-19.99-.4-39.99-.56-59.98-.04-4.29,0-8.58,0-13.47Z"/>
  <path class="cls-2" d="M281.07,318.47c-4.52,2.7-8.24,5.21-12.25,7.14-1.26.61-4.18.26-4.8-.67-6.45-9.77-17.09-9.54-24.2-5.78-8.41,4.45-12.73,14.94-10.16,24.89,3.46,13.39,16,19.93,28.09,14.41,2.28-1.04,3.99-3.32,5.96-5.03-.26-.49-.52-.99-.78-1.48h-13.39v-16.22h35.36c-.62,5.64-.61,10.95-1.86,15.94-5.77,22.94-30.39,36.72-50.67,24.04-24.81-15.51-32.43-48.13-9.44-67.98,17.85-15.41,40.21-12.91,54.58,5.05,1.32,1.65,2.26,3.6,3.55,5.69Z"/>
  <path class="cls-2" d="M516.43,318.2v14.53h30.4c.33,1.32.66,2.09.71,2.88.87,14.93,1.05,12.87-11.16,13.32-3.33.12-6.64.56-9.97.69-3.14.12-6.28.03-10,.03.2,3.73.37,6.96.55,10.36,8.71,0,17.12-.08,25.53.02,10.25.12,10.25.18,11.09,10.35.68,8.25.7,8.62-7.62,8.9-14.15.47-28.32.34-42.48.62-4.26.08-5.06-2.6-5.15-5.78-.13-4.66.04-9.33.12-14,.31-18,.62-35.99.97-53.99.05-2.3.37-4.6.58-7.15h52.11v19.2h-35.68Z"/>
  <path class="cls-2" d="M332.66,298.77q9.53.1,13.09,9.15c8.17,20.91,16.33,41.82,24.48,62.73,2.58,6.63,1.77,7.93-5.14,8.49-.83.07-1.66.12-2.49.16-8.75.38-9.67.06-11.91-8.37-1.13-4.26-3-5.38-7.17-5.16-7.14.37-14.31.23-21.47.07-2.95-.07-4.24.7-5.1,3.84-3.31,12.07-2.27,10.07-13.25,10.08-9.9,0-10.02-.12-6.63-9.24,6.16-16.62,12.45-33.18,18.67-49.78,2.5-6.67,4.88-13.39,7.51-20,.36-.9,1.85-1.74,2.92-1.89,2.12-.29,4.32-.09,6.48-.09ZM333.34,325.88c-.44.2-.88.4-1.32.61-2.58,7.6-5.15,15.21-7.88,23.24,6.18.35,11.87.68,18.62,1.06-3.35-8.84-6.39-16.88-9.43-24.91Z"/>
  <path class="cls-2" d="M94.68,323.86c-25.64,0-51.29.14-76.92-.19-3.43-.04-7.14-2.04-10.16-4-3.11-2.01-2.89-5.7-.05-7.59,3.15-2.1,7.07-4.02,10.73-4.17,12.79-.52,25.62-.25,38.43-.26,37.46-.02,74.93-.04,112.39-.05,1.33,0,2.67-.03,4,.04,5.25.3,8.44,3.68,8.19,8.64-.23,4.54-3.67,7.57-8.68,7.58-25.98.01-51.95,0-77.93,0Z"/>
  <path class="cls-2" d="M670.15,323.97c-23.98,0-47.96.02-71.95-.04-2.27,0-4.86.03-6.75-.98-3.48-1.85-6.26-4.87-5.37-9.24.9-4.46,4.35-6.62,8.69-6.86,4.48-.25,8.99,0,13.49.02,44.3.18,88.59.31,132.89.63,3.51.02,7.39.59,10.37,2.22,1.91,1.05,3.72,4.78,3.31,6.86-.47,2.41-3.08,4.97-5.42,6.26-2.14,1.18-5.17,1.01-7.81,1.02-23.82.06-47.63.04-71.45.04,0,.03,0,.05,0,.08Z"/>
  <path class="cls-2" d="M455.78,23.44c6.1-.36,11.9-.94,17.7-.97,5.2-.03,5.9,1.52,6.76,9.26.49,4.37-1.3,6.09-5.33,6.5-6.26.64-12.5,1.4-19.07,2.15v6.51c7.29-.37,14.19-.85,21.11-1.03,5.79-.15,8.48,2.15,8.45,6.71-.03,4.53-2.98,6.73-8.45,6.88-8.31.23-16.62.57-24.9,1.17-7.13.52-11.53-2.46-11.66-9.64-.26-14.14.12-28.28.21-42.42.03-5.09,2.8-6.84,7.6-7,9.96-.33,19.91-.95,29.86-1.51,6.86-.39,9.59,1.84,10.01,7.96.34,4.86-2.35,6.6-6.55,6.84-6.81.4-13.63.67-20.45.94-6.15.24-6.45.61-5.29,7.65Z"/>
  <path class="cls-2" d="M375.39,22.34c7.23.48,14.01.93,21.72,1.44.38-5.01,1.09-9.9,1.01-14.77-.08-5.2,2.99-6.15,7.01-6.21,6.14-.1,8.14,1.32,8.15,6.04.05,14.5.03,28.99-.08,43.49-.04,5.1-2.53,8.09-6.63,8.54-4.03.45-6.99-2.09-7.78-7.3-.72-4.72-.92-9.52-1.35-14.34h-22.04c0,4.78.12,9.22-.03,13.66-.19,5.48-2.56,7.89-7.45,7.97-4.54.07-8.08-2.73-8.04-7.67.13-15.64.65-31.28,1.17-46.92.14-4.28,3.58-5.01,6.84-4.77,3,.22,6.42.47,6.51,5.07.11,5.14.62,10.27.98,15.78Z"/>
  <path class="cls-2" d="M303.08,17.6c-4.46,0-7.77-.04-11.08,0-6.48.09-7.83-4.55-7.84-9.74,0-4.61,2.32-6.31,8.21-6.2,12.28.23,24.56.53,36.84.87,5.3.15,8.09,2.53,8.14,6.71.08,6.37-2.37,9.26-8.17,9.46-3.11.11-6.24.02-8.97.02,0,9.08,0,17.66,0,26.25,0,2.66.23,5.34,0,7.98-.4,4.77-5.27,9.01-9.86,8.84-4.21-.16-7.3-3.69-7.36-9-.11-8.65.04-17.3.08-25.94.01-2.78,0-5.57,0-9.25Z"/>
  <path class="cls-2" d="M229.7,37.86c-4.66,0-9.32.05-13.98-.01-4.49-.06-8.25-3.33-8.61-7.35-.32-3.51,2.66-7.04,7.4-7.19,10.3-.34,20.62-.28,30.92.08,4.48.16,7.15,3.64,6.98,7.59-.18,4.18-2.78,6.47-7.73,6.57-4.99.1-9.98.02-14.98.02,0,.1,0,.2,0,.31Z"/>
  <path class="cls-2" d="M543.58,37.21c-4.65,0-9.3.08-13.94-.02-4.62-.11-7.03-3.04-7.38-7.21-.36-4.24,2.93-6.74,6.45-6.92,9.1-.47,18.25-.45,27.35,0,4.48.22,6.71,3.81,6.19,8.03-.56,4.51-2.87,6.76-7.71,6.34-3.63-.31-7.3-.06-10.96-.06v-.16Z"/>
  <path class="cls-1" d="M178.04,132.48c7.1.5,14.24.71,21.31,1.6,4.38.55,8.85,1.61,12.89,3.37,8.09,3.52,10.4,8.33,8.95,16.67-1.23,7.08-6.33,12.11-14.12,12.5-9.42.48-18.88.11-29.02.11v-34.26Z"/>
  <path class="cls-1" d="M697.68,191.11h-27.85c4.3-13.67,8.33-26.45,12.35-39.24.39,0,.79,0,1.18,0,4.73,12.96,9.46,25.91,14.32,39.23Z"/>
  <path class="cls-1" d="M333.34,325.88c3.04,8.03,6.08,16.06,9.43,24.91-6.75-.38-12.44-.71-18.62-1.06,2.72-8.03,5.3-15.64,7.88-23.24.44-.2.88-.4,1.32-.61Z"/>
</svg>